{"title":"Thor.The.Dark.World.2013.CAMRip.XviD.AC3-TODE","uid":9136283,"size":971771398,"categoryP":"video","categoryS":"movies","magnet":"?xt=urn:btih:50760c8024f17da6f6edfd65982f86b6beeeea6b&amp;dn=Thor.The.Dark.World.2013.CAMRip.XviD.AC3-TODE&amp;tr=udp%3A%2F%2Ftracker.openbittorrent.com%3A80&amp;tr=udp%3A%2F%2Fopen.demonii.com%3A1337&amp;tr=udp%3A%2F%2Ftracker.coppersurfer.tk%3A6969&amp;tr=udp%3A%2F%2Fexodus.desync.com%3A6969","seeders":8,"leechers":1,"uploader":"xxxlavalxxx","files":-1,"time":1383418664,"description":" &lt;a href=&quot;\nhttp://www.imdb.com/title/tt1981115/&quot; rel=&quot;nofollow&quot; target=&quot;_NEW&quot;&gt;\nhttp://www.imdb.com/title/tt1981115/&lt;/a&gt;\n\n\nFaced with an enemy that even Odin and Asgard cannot withstand, Thor must embark on his most perilous and personal journey yet, one that will reunite him with Jane Foster and force him to sacrifice everything to save us all.\n\nDirector: Alan Taylor\nWriters: Christopher Yost (screenplay), Christopher Markus (screenplay)\nStars: Chris Hemsworth, Natalie Portman, Tom Hiddleston\nGenres: Action | Adventure | Fantasy\nCountry: USA\nLanguage: English\n\n\nThanks \n\nVideo : iNTERNAL TRUEFRENCH MD CAM XviD\nAudio : FANTA\n\n\n\nFormat                                   : AVI\nFormat/Info                              : Audio Video Interleave\nFile size                                : 927 MiB\nDuration                                 : 1h 27mn\nOverall bit rate                         : 1 473 Kbps\nWriting application                      : Lavf52.94.0\nWriting library                          : VirtualDub build 32842/release\n\nVideo\nID                                       : 0\nFormat                                   : MPEG-4 Visual\nFormat profile                           : Advanced Simple@L5\nFormat settings, BVOP                    : No\nFormat settings, QPel                    : No\nFormat settings, GMC                     : No warppoints\nFormat settings, Matrix                  : Default (MPEG)\nCodec ID                                 : XVID\nCodec ID/Hint                            : XviD\nDuration                                 : 1h 27mn\nBit rate                                 : 1 270 Kbps\nWidth                                    : 720 pixels\nHeight                                   : 320 pixels\nDisplay aspect ratio                     : 2.25:1\nFrame rate                               : 29.970 fps\nColor space                              : YUV\nChroma subsampling                       : 4:2:0\nBit depth                                : 8 bits\nScan type                                : Progressive\nCompression mode                         : Lossy\nBits/(Pixel*Frame)                       : 0.184\nStream size                              : 799 MiB (86%)\nWriting library                          : XviD 1.3.0.dev55\n\nAudio\nID                                       : 1\nFormat                                   : AC-3\nFormat/Info                              : Audio Coding 3\nMode extension                           : CM (complete main)\nFormat settings, Endianness              : Big\nCodec ID                                 : 2000\nDuration                                 : 1h 27mn\nBit rate mode                            : Constant\nBit rate                                 : 192 Kbps\nChannel(s)                               : 2 channels\nChannel positions                        : Front: L R\nSampling rate                            : 44.1 KHz\nBit depth                                : 16 bits\nCompression mode                         : Lossy\nStream size                              : 120 MiB (13%)\nAlignment                                : Split accross interleaves\nInterleave, duration                     : 33 ms (1.00 video frame)\nInterleave, preload duration             : 500 ms\n\n\n\n\n &lt;a href=&quot;\nhttp://i.imgur.com/c5fAEDc.jpg&quot; rel=&quot;nofollow&quot; target=&quot;_NEW&quot;&gt;\nhttp://i.imgur.com/c5fAEDc.jpg&lt;/a&gt; &lt;a href=&quot;\nhttp://i.imgur.com/8evbaLl.jpg&quot; rel=&quot;nofollow&quot; target=&quot;_NEW&quot;&gt;\nhttp://i.imgur.com/8evbaLl.jpg&lt;/a&gt; &lt;a href=&quot;\nhttp://i.imgur.com/PF4bDRk.jpg&quot; rel=&quot;nofollow&quot; target=&quot;_NEW&quot;&gt;\nhttp://i.imgur.com/PF4bDRk.jpg&lt;/a&gt; &lt;a href=&quot;\nhttp://i.imgur.com/vKQ7BmX.jpg&quot; rel=&quot;nofollow&quot; target=&quot;_NEW&quot;&gt;\nhttp://i.imgur.com/vKQ7BmX.jpg&lt;/a&gt; &lt;a href=&quot;\nhttp://i.imgur.com/jY2WUsV.jpg&quot; rel=&quot;nofollow&quot; target=&quot;_NEW&quot;&gt;\nhttp://i.imgur.com/jY2WUsV.jpg&lt;/a&gt; &lt;a href=&quot;\nhttp://i.imgur.com/TSbOgbI.jpg&quot; rel=&quot;nofollow&quot; target=&quot;_NEW&quot;&gt;\nhttp://i.imgur.com/TSbOgbI.jpg&lt;/a&gt; &lt;a href=&quot;\nhttp://i.imgur.com/opDMCNG.jpg&quot; rel=&quot;nofollow&quot; target=&quot;_NEW&quot;&gt;\nhttp://i.imgur.com/opDMCNG.jpg&lt;/a&gt; &lt;a href=&quot;\nhttp://i.imgur.com/J9Srk1U.jpg&quot; rel=&quot;nofollow&quot; target=&quot;_NEW&quot;&gt;\nhttp://i.imgur.com/J9Srk1U.jpg&lt;/a&gt; &lt;a href=&quot;\nhttp://i.imgur.com/ETgzhDJ.jpg&quot; rel=&quot;nofollow&quot; target=&quot;_NEW&quot;&gt;\nhttp://i.imgur.com/ETgzhDJ.jpg&lt;/a&gt; &lt;a href=&quot;\nhttp://i.imgur.com/lUpSviI.jpg&quot; rel=&quot;nofollow&quot; target=&quot;_NEW&quot;&gt;\nhttp://i.imgur.com/lUpSviI.jpg&lt;/a&gt;","torrent":{"xt":"urn:btih:50760c8024f17da6f6edfd65982f86b6beeeea6b","amp;dn":"Thor.The.Dark.World.2013.CAMRip.XviD.AC3-TODE","amp;tr":["udp%3A%2F%2Ftracker.openbittorrent.com%3A80","udp%3A%2F%2Fopen.demonii.com%3A1337","udp%3A%2F%2Ftracker.coppersurfer.tk%3A6969","udp%3A%2F%2Fexodus.desync.com%3A6969"],"infoHash":"50760c8024f17da6f6edfd65982f86b6beeeea6b","infoHashBuffer":{"type":"Buffer","data":[80,118,12,128,36,241,125,166,246,237,253,101,152,47,134,182,190,238,234,107]},"announce":[],"urlList":[]}}